# xmcd
#
# Track frame offsets:
#	150
#	15573
#	32375
#	52441
#	64370
#	78060
#	95218
#	111765
#	130597
#	145674
#	158794
#	175007
#	191229
#	206189
#	221865
#	236191
#	254388
#	272576
#
# Disc length: 3903 seconds
#
# Revision: 1
# Processed by: cddbd v1.5.1PL0 Copyright (c) Steve Scherf et al.
# Submitted via: dBpowerAMP V4.0
#
DISCID=0c0f3d12
DTITLE=Lourenço e Lourival - Seleção de ouro
DYEAR=1900
DGENRE=Country
TTITLE0=Meu reino encantado
TTITLE1=Canga do tempo
TTITLE2=A sementinha
TTITLE3=Amor inocente
TTITLE4=Anel de noivado
TTITLE5=Como eu chorei
TTITLE6=Condenado por amor
TTITLE7=Mais um na fila
TTITLE8=Rainha do Paraná
TTITLE9=O menino caçador
TTITLE10=A cruz do caminho
TTITLE11=O telefone chora
TTITLE12=Se ainda existe amor
TTITLE13=Última carta
TTITLE14=Férias sem você
TTITLE15=Parceiro fiel
TTITLE16=Velha porteira
TTITLE17=Os três boiadeiros japoneses
EXTD=Benedito Cepinho
EXTT0=
EXTT1=
EXTT2=
EXTT3=
EXTT4=
EXTT5=
EXTT6=
EXTT7=
EXTT8=
EXTT9=
EXTT10=
EXTT11=
EXTT12=
EXTT13=
EXTT14=
EXTT15=
EXTT16=
EXTT17=
PLAYORDER=
